<?xml version="1.0" encoding="UTF-8"?>
<svg id="City" xmlns="http://www.w3.org/2000/svg" version="1.1" viewBox="0 0 770.3 870">
  <!-- Generator: Adobe Illustrator 30.1.0, SVG Export Plug-In . SVG Version: 2.1.1 Build 136)  -->
  <defs>
    <style>
      .st0 {
        stroke-width: 1.4px;
      }

      .st0, .st1, .st2, .st3, .st4, .st5 {
        fill: none;
        stroke: #191c3c;
        stroke-miterlimit: 10;
      }

      .st1 {
        stroke-width: 9.7px;
      }

      .st2 {
        stroke-width: 7px;
      }

      .st3 {
        stroke-width: 5px;
      }

      .st4 {
        stroke-width: 3px;
      }

      .st5 {
        stroke-width: 13.9px;
      }
    </style>
  </defs>
  <path class="st3" d="M497.6,435c6.3,29.6-1.2,51-21.7,73.2-20.2,20.7-53.4,42.2-90.8,39.3-37.4-2.9-70.6-6.6-90.8-26.6-20.5-18.6-28.1-53.4-21.7-85.9,6.3-29.6,24-51,44.2-73.2,20.5-20.7,43.6-42.2,68.3-39.3,24.7,2.9,47.8,6.6,68.3,26.6,20.2,18.6,37.8,53.4,44.2,85.9Z"/>
  <circle class="st0" cx="385.2" cy="435" r="30.7"/>
  <path class="st2" d="M543.7,435c-4.6,22.9-13.4,39.1-24.4,55.4-11.1,16-24.3,32.2-38.6,47.6-28.9,31.3-61.1,57.5-95.5,55.5-34.4-2-66.5-11.3-95.4-37.4-14.3-13.2-27.6-31.2-38.7-53.1-11-21.6-19.8-47.2-24.4-68-4.6-22.9-4.5-39.1.5-55.4,5-16,14.9-32.2,29.3-47.6,28.4-31.3,75.5-57.5,128.7-55.5,53.2,2,100.3,11.3,128.7,37.4,14.4,13.2,24.3,31.2,29.3,53.1,5,21.6,5.1,47.2.5,68Z"/>
  <path class="st1" d="M593.5,523.3c-9.4,39.8-24.2,70.1-43,88.7-18.7,19.1-41.3,26.7-66.3,31.7-25,4.8-52.5,6.9-80.8,9.4-28.4,1.5-57.7,3.3-86.5-14.7-28.8-12-54.3-42.2-75.7-66.5-21.5-25.4-38.9-44.9-51.6-62.2-12.7-17.7-20.6-33.3-22.9-58.1-2.4-24.3.8-57.9,10.2-99,9.4-39.3,26.4-74.5,48.4-93.1,22-19.9,49-23.1,78.4-28.6,58.8-4.8,127.3-25,184.8,7.2,28.8,14.7,52.1,39.5,70.3,59.2,18.2,20.6,31.3,36.2,39.6,53.8,8.3,17.6,11.8,37.2,10.9,66.8-.9,28.8-6.2,67.8-15.7,105.4Z"/>
  <path class="st5" d="M698.7,435c0,48-8.8,68-24.6,93.6-15.9,24.2-38.8,54-67.2,87.5-28.4,33-62.2,69.9-99.7,95.4-37.5,25.9-78.8,40.4-122.1,37-43.3-3.5-84.5-6.5-122.1-12.3-37.5-6.2-71.3-15.2-99.7-38.9-28.4-23.2-51.3-61-67.2-111.8-15.9-49.4-24.6-111.9-24.6-150.5,0-48,8.8-68,24.6-93.6,15.9-24.2,38.8-53.9,67.2-87.5,28.4-33,62.2-69.9,99.7-95.4,37.5-25.9,78.8-40.4,122.1-37,43.3,3.5,84.5,6.5,122.1,12.3,37.5,6.2,71.3,15.2,99.7,38.9,28.4,23.2,51.3,61,67.2,111.8,15.9,49.4,24.6,111.9,24.6,150.5Z"/>
  <line class="st4" x1="385.2" y1="547.5" x2="385.2" y2="593.5"/>
  <line class="st4" x1="494.5" y1="421.9" x2="535.4" y2="458.6"/>
  <line class="st4" x1="485.6" y1="397" x2="525.7" y2="329.1"/>
  <line class="st4" x1="328" y1="350.7" x2="303.1" y2="231.7"/>
  <line class="st4" x1="303.1" y1="378.1" x2="173.1" y2="379.1"/>
  <line class="st4" x1="271.1" y1="450.7" x2="141.8" y2="676.3"/>
  <line class="st4" x1="330" y1="539.7" x2="289.1" y2="738.7"/>
  <line class="st4" x1="474.1" y1="510.2" x2="543.7" y2="680.8"/>
  <line class="st4" x1="450.8" y1="347.1" x2="519.4" y2="174.6"/>
  <line class="st4" x1="313.9" y1="367.2" x2="150.9" y2="260.2"/>
  <line class="st4" x1="279.2" y1="414.7" x2="73.6" y2="456.9"/>
  <line class="st4" x1="488.4" y1="407.1" x2="697.6" y2="397.3"/>
  <line class="st4" x1="494.5" y1="478.6" x2="639" y2="580"/>
  <line class="st4" x1="437.3" y1="534.7" x2="415.9" y2="748.6"/>
</svg>