<?xml version="1.0" encoding="UTF-8"?>
<svg id="Layer_1" data-name="Layer 1" xmlns="http://www.w3.org/2000/svg" viewBox="0 0 241.8 224.58">
  <defs>
    <style>
      .cls-1 {
        fill: #75573e;
      }

      .cls-2 {
        fill: #74573e;
      }
    </style>
  </defs>
  <polygon class="cls-2" points="0 198.32 0 171.17 19.9 171.17 19.9 176.09 5 176.09 5 182.49 18.11 182.49 18.11 186.91 5 186.91 5 193.39 19.9 193.39 19.9 198.32 0 198.32"/>
  <path class="cls-2" d="M24.28,198.32v-27.15h14.78c5.39,0,7.95,3.41,7.95,7.76v.12c0,3.03-1.28,5.55-4.11,6.79v.39c1.75.7,2.83,2.02,3.07,4.3l.31,3.03c.19,2.25.62,3.1,1.12,4.27v.5h-5.2c-.54-1.2-.81-2.37-1.09-4.77l-.23-2.21c-.39-3.14-1.67-3.92-3.84-3.92h-7.76v10.9h-5ZM29.29,183.08h9.15c2.29,0,3.8-1.28,3.8-3.45v-.12c0-2.29-1.51-3.53-3.8-3.53h-9.15v7.1Z"/>
  <path class="cls-2" d="M51.17,198.32v-27.15h14.39c5.43,0,7.95,3.45,7.95,7.25v.15c0,2.52-1.24,4.65-3.68,5.7v.39c2.75,1.09,4.07,3.41,4.07,6.21v.15c0,3.99-2.56,7.29-7.95,7.29h-14.78ZM56.17,182.45h8.84c2.21,0,3.72-1.24,3.72-3.1v-.12c0-1.98-1.51-3.3-3.8-3.3h-8.77v6.52ZM56.17,193.55h9.15c2.29,0,3.8-1.32,3.8-3.38v-.12c0-2.13-1.51-3.34-3.8-3.34h-9.15v6.83Z"/>
  <polygon class="cls-2" points="76.77 198.32 76.77 193.39 82.55 193.39 82.55 176.09 76.77 176.09 76.77 171.17 93.33 171.17 93.33 176.09 87.56 176.09 87.56 193.39 93.33 193.39 93.33 198.32 76.77 198.32"/>
  <polygon class="cls-2" points="97.57 198.32 97.57 171.17 102.57 171.17 102.57 193.39 117.08 193.39 117.08 198.32 97.57 198.32"/>
  <polygon class="cls-2" points="126.62 198.32 118.48 171.63 118.48 171.17 123.56 171.17 130.27 193 131.78 193 138.53 171.17 143.57 171.17 143.57 171.63 135.47 198.32 126.62 198.32"/>
  <polygon class="cls-2" points="146.64 198.32 146.64 171.17 166.54 171.17 166.54 176.09 151.64 176.09 151.64 182.49 164.75 182.49 164.75 186.91 151.64 186.91 151.64 193.39 166.54 193.39 166.54 198.32 146.64 198.32"/>
  <path class="cls-2" d="M170.92,198.32v-27.15h14.78c5.39,0,7.95,3.41,7.95,7.76v.12c0,3.03-1.28,5.55-4.11,6.79v.39c1.75.7,2.83,2.02,3.07,4.3l.31,3.03c.19,2.25.62,3.1,1.12,4.27v.5h-5.2c-.54-1.2-.81-2.37-1.09-4.77l-.23-2.21c-.39-3.14-1.67-3.92-3.84-3.92h-7.76v10.9h-5ZM175.93,183.08h9.15c2.29,0,3.8-1.28,3.8-3.45v-.12c0-2.29-1.51-3.53-3.8-3.53h-9.15v7.1Z"/>
  <path class="cls-2" d="M196.06,188.47l4.97-.15c0,3.45,2.72,5.82,6.44,5.82,3.38,0,5.74-1.47,5.74-3.88,0-1.78-1.36-2.56-4.62-3.06l-3.3-.54c-5.78-.97-8.53-3.18-8.53-7.45s3.76-8.57,10.24-8.57c5.31,0,11.13,3.45,11.13,10.24l-4.96.12c0-3.26-2.68-5.62-6.17-5.62-3.1,0-5.31,1.67-5.31,3.84,0,1.9,1.4,2.56,4.73,3.1l3.3.54c5.59.93,8.46,3.41,8.46,7.56,0,4.96-3.92,8.46-10.71,8.46-5.97,0-11.4-3.68-11.4-10.39"/>
  <polygon class="cls-2" points="221.9 198.32 221.9 171.17 241.8 171.17 241.8 176.09 226.9 176.09 226.9 182.49 240.01 182.49 240.01 186.91 226.9 186.91 226.9 193.39 241.8 193.39 241.8 198.32 221.9 198.32"/>
  <polygon class="cls-2" points="22.78 212.19 19.41 212.19 19.41 211.01 27.55 211.01 27.55 212.19 24.17 212.19 24.17 221.44 22.78 221.44 22.78 212.19"/>
  <path class="cls-2" d="M30.04,210.43v4.53c.39-.67,1.08-1.3,2.37-1.3,1.22,0,2.56.67,2.56,2.93v4.86h-1.31v-4.64c0-1.29-.55-2.01-1.65-2.01-1.37,0-1.97.9-1.97,2.49v4.16h-1.31v-11.01h1.31Z"/>
  <path class="cls-2" d="M38,217.88c0,1.55.79,2.65,2.08,2.65,1.2,0,1.59-.62,1.84-1.18h1.32c-.3.97-1.11,2.27-3.2,2.27-2.39,0-3.37-1.94-3.37-3.9,0-2.26,1.14-4.06,3.45-4.06,2.45,0,3.26,1.97,3.26,3.59,0,.23,0,.43-.02.63h-5.36ZM42.05,216.95c-.02-1.25-.65-2.26-1.94-2.26s-1.93.93-2.06,2.26h4Z"/>
  <path class="cls-2" d="M49.04,211.01h3.73c2.93,0,4.92,2,4.92,5.11s-1.93,5.32-4.96,5.32h-3.68v-10.44ZM50.42,220.27h2.19c2.46,0,3.62-1.76,3.62-4.12,0-2.06-1.07-3.97-3.62-3.97h-2.2v8.09Z"/>
  <path class="cls-2" d="M59.67,210.43h1.31v1.64h-1.31v-1.64ZM59.67,213.84h1.31v7.6h-1.31v-7.6Z"/>
  <path class="cls-2" d="M69.49,220.76c0,2.44-1.01,3.82-3.49,3.82-2.31,0-3.01-1.29-3.15-2.32h1.34c.22.83.89,1.27,1.87,1.27,1.73,0,2.16-1.1,2.16-2.85v-.62c-.4.85-1.1,1.34-2.38,1.34-1.87,0-3.15-1.53-3.15-3.76,0-2.48,1.44-3.99,3.28-3.99,1.45,0,2.07.68,2.24,1.19.01-.35.05-.85.06-1.01h1.24c0,.44-.02,1.46-.02,2.2v4.72ZM64.05,217.59c0,1.6.83,2.69,2.08,2.69,1.64,0,2.12-1.1,2.12-2.79s-.45-2.72-2.08-2.72c-1.41,0-2.12,1.18-2.12,2.82"/>
  <path class="cls-2" d="M71.73,210.43h1.31v1.64h-1.31v-1.64ZM71.73,213.84h1.31v7.6h-1.31v-7.6Z"/>
  <path class="cls-2" d="M74.38,213.84h1.32v-2.24h1.31v2.24h1.68v1.07h-1.68v4.46c0,.74.18,1.12.87,1.12.18,0,.45-.01.66-.06v.99c-.33.12-.77.14-1.14.14-1.18,0-1.71-.61-1.71-1.88v-4.76h-1.32v-1.07Z"/>
  <path class="cls-2" d="M85.78,219.78c0,.69.06,1.44.1,1.66h-1.26c-.06-.17-.11-.53-.12-.99-.27.51-.87,1.17-2.35,1.17-1.79,0-2.56-1.17-2.56-2.32,0-1.7,1.33-2.47,3.59-2.47h1.3v-.65c0-.67-.21-1.49-1.64-1.49-1.27,0-1.48.63-1.62,1.22h-1.27c.1-1.05.75-2.26,2.94-2.25,1.86,0,2.89.76,2.89,2.49v3.63ZM84.5,217.73h-1.23c-1.52,0-2.33.42-2.33,1.49,0,.79.54,1.37,1.48,1.37,1.83,0,2.08-1.23,2.08-2.61v-.24Z"/>
  <rect class="cls-2" x="88.05" y="210.43" width="1.31" height="11.01"/>
  <polygon class="cls-2" points="95.64 211.01 97.03 211.01 97.03 220.26 102.47 220.26 102.28 221.44 95.64 221.44 95.64 211.01"/>
  <path class="cls-2" d="M109.59,219.78c0,.69.06,1.44.1,1.66h-1.26c-.06-.17-.1-.53-.12-.99-.26.51-.87,1.17-2.35,1.17-1.79,0-2.56-1.17-2.56-2.32,0-1.7,1.33-2.47,3.59-2.47h1.3v-.65c0-.67-.21-1.49-1.64-1.49-1.27,0-1.49.63-1.62,1.22h-1.27c.1-1.05.75-2.26,2.94-2.25,1.86,0,2.89.76,2.89,2.49v3.63ZM108.31,217.73h-1.23c-1.52,0-2.33.42-2.33,1.49,0,.79.54,1.37,1.48,1.37,1.83,0,2.08-1.23,2.08-2.61v-.24Z"/>
  <path class="cls-2" d="M112.22,213.84c1.23,3.64,1.9,5.66,2.11,6.43h.02c.25-.86.79-2.6,2.03-6.43h1.33l-2.73,7.96c-.77,2.23-1.35,2.79-2.9,2.79-.24,0-.52-.01-.82-.05v-1.14c.19.02.41.04.63.04.96,0,1.33-.42,1.78-1.69l-2.85-7.9h1.42Z"/>
  <path class="cls-2" d="M119.78,217.88c0,1.55.79,2.65,2.08,2.65,1.2,0,1.59-.62,1.84-1.18h1.32c-.3.97-1.11,2.27-3.2,2.27-2.39,0-3.37-1.94-3.37-3.9,0-2.26,1.14-4.06,3.45-4.06,2.45,0,3.26,1.97,3.26,3.59,0,.23,0,.43-.02.63h-5.36ZM123.83,216.95c-.02-1.25-.65-2.26-1.94-2.26s-1.93.93-2.06,2.26h4Z"/>
  <path class="cls-2" d="M126.85,215.9c0-1.06,0-1.66-.02-2.07h1.29c.02.21.04.81.04,1.55.4-1.03,1.3-1.69,2.56-1.73v1.31c-1.56.05-2.56.86-2.56,2.78v3.69h-1.31v-5.54Z"/>
  <path class="cls-2" d="M142.46,217.62c0,2.19-1.26,4-3.58,4-2.18,0-3.5-1.69-3.5-3.97s1.29-3.99,3.58-3.99c2.11,0,3.5,1.58,3.5,3.97M136.74,217.64c0,1.67.83,2.88,2.2,2.88s2.17-1.15,2.17-2.88-.78-2.89-2.2-2.89-2.17,1.15-2.17,2.89"/>
  <path class="cls-2" d="M144.48,221.44v-6.53h-1.23v-1.07h1.23v-.91c0-1.4.53-2.65,2.21-2.65.28,0,.66.04.84.1v1.11c-.18-.04-.46-.07-.67-.07-.78,0-1.08.47-1.08,1.58v.83h1.52v1.07h-1.52v6.53h-1.31Z"/>
  <path class="cls-2" d="M153.74,216.84v4.6h-1.37v-10.44h4.08c2.14,0,3.29,1.16,3.29,2.79,0,1.36-.78,2.18-1.78,2.45.85.23,1.59.87,1.59,2.68v.45c0,.72-.03,1.63.14,2.07h-1.34c-.19-.45-.18-1.26-.18-2.24v-.22c0-1.49-.42-2.13-2.29-2.13h-2.13ZM153.74,215.68h2.27c1.59,0,2.3-.6,2.3-1.77,0-1.11-.72-1.74-2.14-1.74h-2.43v3.51Z"/>
  <path class="cls-2" d="M162.57,217.88c0,1.55.79,2.65,2.08,2.65,1.2,0,1.59-.62,1.84-1.18h1.32c-.3.97-1.11,2.27-3.2,2.27-2.39,0-3.37-1.94-3.37-3.9,0-2.26,1.14-4.06,3.45-4.06,2.45,0,3.26,1.97,3.26,3.59,0,.23,0,.43-.02.63h-5.36ZM166.61,216.95c-.01-1.25-.64-2.26-1.94-2.26s-1.93.93-2.06,2.26h4Z"/>
  <path class="cls-2" d="M175.29,219.78c0,.69.06,1.44.11,1.66h-1.26c-.06-.17-.1-.53-.12-.99-.26.51-.87,1.17-2.35,1.17-1.79,0-2.56-1.17-2.56-2.32,0-1.7,1.33-2.47,3.59-2.47h1.3v-.65c0-.67-.21-1.49-1.64-1.49-1.27,0-1.49.63-1.62,1.22h-1.27c.1-1.05.75-2.26,2.94-2.25,1.86,0,2.89.76,2.89,2.49v3.63ZM174,217.73h-1.23c-1.52,0-2.33.42-2.33,1.49,0,.79.54,1.37,1.48,1.37,1.83,0,2.08-1.23,2.08-2.61v-.24Z"/>
  <rect class="cls-2" x="177.55" y="210.43" width="1.31" height="11.01"/>
  <polygon class="cls-2" points="191.7 216.56 186.51 216.56 186.51 220.26 192.21 220.26 192.03 221.44 185.15 221.44 185.15 211.01 191.95 211.01 191.95 212.19 186.51 212.19 186.51 215.38 191.7 215.38 191.7 216.56"/>
  <path class="cls-2" d="M194.58,219.27c.22.83.83,1.32,1.86,1.32,1.12,0,1.56-.48,1.56-1.17s-.35-1.04-1.8-1.39c-2.17-.53-2.63-1.19-2.63-2.23s.79-2.14,2.75-2.14,2.76,1.14,2.86,2.2h-1.27c-.11-.49-.48-1.18-1.65-1.18-1.07,0-1.38.51-1.38,1.01,0,.57.31.85,1.71,1.18,2.31.55,2.77,1.32,2.77,2.45,0,1.33-1.06,2.31-2.95,2.31s-2.94-1-3.13-2.36h1.31Z"/>
  <path class="cls-2" d="M200,213.84h1.32v-2.24h1.31v2.24h1.68v1.07h-1.68v4.46c0,.74.18,1.12.87,1.12.18,0,.45-.01.66-.06v.99c-.33.12-.78.14-1.14.14-1.18,0-1.71-.61-1.71-1.88v-4.76h-1.32v-1.07Z"/>
  <path class="cls-2" d="M211.4,219.78c0,.69.06,1.44.1,1.66h-1.26c-.06-.17-.1-.53-.12-.99-.27.51-.87,1.17-2.35,1.17-1.79,0-2.56-1.17-2.56-2.32,0-1.7,1.33-2.47,3.59-2.47h1.3v-.65c0-.67-.21-1.49-1.64-1.49-1.27,0-1.48.63-1.62,1.22h-1.27c.1-1.05.75-2.26,2.94-2.25,1.86,0,2.89.76,2.89,2.49v3.63ZM210.11,217.73h-1.23c-1.52,0-2.33.42-2.33,1.49,0,.79.54,1.37,1.48,1.37,1.83,0,2.08-1.23,2.08-2.61v-.24Z"/>
  <path class="cls-2" d="M212.58,213.84h1.31v-2.24h1.31v2.24h1.68v1.07h-1.68v4.46c0,.74.18,1.12.87,1.12.18,0,.45-.01.66-.06v.99c-.33.12-.78.14-1.14.14-1.18,0-1.71-.61-1.71-1.88v-4.76h-1.31v-1.07Z"/>
  <path class="cls-2" d="M219.02,217.88c0,1.55.79,2.65,2.08,2.65,1.2,0,1.59-.62,1.84-1.18h1.32c-.3.97-1.11,2.27-3.2,2.27-2.39,0-3.37-1.94-3.37-3.9,0-2.26,1.14-4.06,3.45-4.06,2.45,0,3.26,1.97,3.26,3.59,0,.23,0,.43-.02.63h-5.36ZM223.07,216.95c-.02-1.25-.64-2.26-1.94-2.26s-1.93.93-2.06,2.26h4Z"/>
  <path class="cls-2" d="M193.7,82.94l-6.12.02-.02-5.54,6.12-.02v-4.16s-.03-4.16-.03-4.16l-6.12.02-.02-5.54,6.12-.02-.03-8.19-6.21.02v1.32s-21.47.07-21.47.07c0,.06-7.99,8.12-11.13,11.29-.46.46-.13,1.25.52,1.25l20.22-.07c2.24,0,4.07,1.81,4.08,4.05,0,2.25-1.81,4.07-4.05,4.08l-20.22.07c-.65,0-.98.79-.52,1.25,3.16,3.14,11.21,11.17,11.21,11.23l21.47-.07v1.32s6.21-.02,6.21-.02l-.03-8.19ZM175.51,64.53v-3.19s5.08-.02,5.08-.02c.88,0,1.6.71,1.6,1.59,0,.88-.71,1.6-1.59,1.6l-5.09.02ZM175.58,85.24v-3.19s5.08-.02,5.08-.02c.88,0,1.6.71,1.6,1.59,0,.88-.71,1.6-1.59,1.6l-5.09.02Z"/>
  <path class="cls-1" d="M175.68,105.6l-22.48-22.95c-2.26-2.31-3.59-5.19-4-8.16-.02-.14-.08-.66-.09-1.17,0-.48.04-.95.05-1.03.36-3.09,1.7-6.08,4.04-8.47l22.48-22.95-9.52-9.33-21.57,21.85c-5.43,5.5-8.11,12.68-8.07,19.84-.05,7.16,2.64,14.34,8.07,19.84l21.57,21.85,9.52-9.33ZM161.31,101.53l.23-.23-12.95-12.95c-4.16-4.17-6.25-9.64-6.25-15.11,0,0,0,0,0,0s0,0,0,0c0-5.47,2.08-10.94,6.25-15.11l12.95-12.95-.23-.23.84-.84.84.84-.84.84-.23-.23-12.95,12.95c-4.06,4.06-6.09,9.39-6.09,14.72,0,5.33,2.03,10.66,6.09,14.72l12.95,12.95.23-.23.84.84-.84.84-.84-.84Z"/>
  <path class="cls-2" d="M130.19.03l.02,6.12-5.54.02-.02-6.12h-4.16s-4.16.03-4.16.03l.02,6.12-5.54.02-.02-6.12-8.19.03.02,6.21h1.32s.07,21.47.07,21.47c.06,0,8.12,7.99,11.29,11.13.46.46,1.25.13,1.25-.52l-.07-20.22c0-2.24,1.81-4.07,4.05-4.08,2.24,0,4.07,1.81,4.08,4.05l.07,20.22c0,.65.79.98,1.25.52,3.15-3.16,11.17-11.21,11.23-11.21l-.07-21.47h1.32s-.02-6.21-.02-6.21l-8.19.03ZM111.79,18.22h-3.19s-.02-5.08-.02-5.08c0-.88.71-1.6,1.59-1.6.88,0,1.6.71,1.6,1.59l.02,5.09ZM132.49,18.15h-3.19s-.02-5.08-.02-5.08c0-.88.71-1.6,1.59-1.6.88,0,1.6.71,1.6,1.59l.02,5.09Z"/>
  <path class="cls-2" d="M152.85,18.05l-22.95,22.48c-2.31,2.26-5.18,3.59-8.16,4-.14.02-.66.08-1.17.09-.48,0-.95-.04-1.03-.05-3.09-.36-6.08-1.7-8.47-4.04l-22.95-22.48-9.33,9.52,21.85,21.57c5.5,5.43,12.68,8.11,19.84,8.07,7.16.05,14.34-2.64,19.84-8.07l21.85-21.57-9.33-9.52ZM148.78,32.42l-.23-.23-12.95,12.95c-4.16,4.16-9.64,6.25-15.11,6.25,0,0,0,0,0,0,0,0,0,0,0,0-5.47,0-10.94-2.08-15.11-6.25l-12.95-12.95-.23.23-.84-.84.84-.84.84.84-.23.23,12.95,12.95c4.06,4.06,9.39,6.09,14.72,6.09,5.33,0,10.66-2.03,14.72-6.09l12.95-12.95-.23-.23.84-.84.84.84-.84.84Z"/>
  <path class="cls-2" d="M47.28,63.54l6.12-.02.02,5.54-6.12.02v4.16s.03,4.16.03,4.16l6.12-.02.02,5.54-6.12.02.03,8.19,6.21-.02v-1.32s21.47-.07,21.47-.07c0-.06,7.99-8.12,11.13-11.29.46-.46.13-1.25-.53-1.25l-20.22.07c-2.24,0-4.07-1.81-4.08-4.05,0-2.24,1.81-4.07,4.05-4.08l20.22-.07c.65,0,.98-.79.52-1.25-3.16-3.15-11.21-11.17-11.21-11.23l-21.47.07v-1.32s-6.21.02-6.21.02l.03,8.19ZM65.48,81.95v3.19s-5.08.02-5.08.02c-.88,0-1.6-.71-1.6-1.59,0-.88.71-1.6,1.59-1.6l5.09-.02ZM65.41,61.24v3.19s-5.08.02-5.08.02c-.88,0-1.6-.71-1.6-1.59,0-.88.71-1.6,1.59-1.6l5.09-.02Z"/>
  <path class="cls-2" d="M65.31,40.88l22.48,22.95c2.26,2.31,3.59,5.18,4,8.16.02.14.08.66.09,1.17,0,.48-.04.95-.05,1.03-.36,3.09-1.7,6.08-4.04,8.47l-22.48,22.95,9.52,9.33,21.57-21.85c5.43-5.5,8.11-12.68,8.07-19.84.05-7.16-2.64-14.34-8.07-19.84l-21.57-21.85-9.52,9.33ZM79.67,44.95l-.23.23,12.95,12.95c4.16,4.17,6.25,9.64,6.25,15.11,0,0,0,0,0,0s0,0,0,0c0,5.47-2.08,10.94-6.25,15.11l-12.95,12.96.23.23-.84.84-.84-.84.84-.84.23.23,12.95-12.95c4.06-4.06,6.09-9.39,6.09-14.72,0-5.33-2.03-10.66-6.09-14.72l-12.95-12.95-.23.23-.84-.84.84-.84.84.84Z"/>
  <path class="cls-2" d="M110.8,146.45l-.02-6.12,5.54-.02.02,6.12h4.16s4.16-.03,4.16-.03l-.02-6.12,5.54-.02.02,6.12,8.19-.03-.02-6.21h-1.32s-.07-21.47-.07-21.47c-.06,0-8.12-7.99-11.29-11.13-.46-.46-1.25-.13-1.25.52l.07,20.22c0,2.24-1.81,4.07-4.05,4.08-2.24,0-4.07-1.81-4.08-4.05l-.07-20.22c0-.65-.79-.98-1.25-.52-3.15,3.16-11.17,11.21-11.23,11.21l.07,21.47h-1.32s.02,6.21.02,6.21l8.19-.03ZM129.2,128.26h3.19s.02,5.07.02,5.07c0,.88-.71,1.6-1.59,1.6-.88,0-1.6-.71-1.6-1.59l-.02-5.09ZM108.5,128.32h3.19s.02,5.08.02,5.08c0,.88-.71,1.6-1.59,1.6-.88,0-1.6-.71-1.6-1.59l-.02-5.09Z"/>
  <path class="cls-2" d="M88.13,128.43l22.95-22.48c2.31-2.26,5.18-3.59,8.16-4,.14-.02.66-.08,1.17-.09.48,0,.95.04,1.03.05,3.09.36,6.08,1.7,8.47,4.04l22.95,22.48,9.33-9.52-21.85-21.57c-5.5-5.43-12.68-8.11-19.84-8.07-7.16-.05-14.34,2.64-19.84,8.07l-21.85,21.57,9.33,9.52ZM92.2,114.06l.23.23,12.95-12.95c4.17-4.16,9.63-6.25,15.11-6.25,0,0,0,0,0,0,0,0,0,0,0,0,5.47,0,10.94,2.08,15.1,6.25l12.96,12.95.23-.23.84.84-.84.84-.84-.84.23-.23-12.95-12.95c-4.06-4.06-9.39-6.09-14.72-6.09-5.33,0-10.66,2.03-14.72,6.09l-12.95,12.95.23.23-.84.84-.84-.84.84-.84Z"/>
  <polygon class="cls-1" points="120.56 65.66 123.7 53.49 122.93 66.04 129.68 55.43 125.07 67.12 134.76 59.13 126.76 68.82 138.45 64.21 127.85 70.96 140.4 70.19 128.23 73.33 140.4 76.48 127.85 75.7 138.45 82.45 126.76 77.84 134.76 87.54 125.07 79.54 129.68 91.23 122.93 80.63 123.7 93.17 120.56 81.01 117.41 93.17 118.18 80.63 111.44 91.23 116.05 79.54 106.35 87.54 114.35 77.84 102.66 82.45 113.26 75.7 100.71 76.48 112.88 73.33 100.71 70.19 113.26 70.96 102.66 64.21 114.35 68.82 106.35 59.13 116.05 67.12 111.44 55.43 118.18 66.04 117.41 53.49 120.56 65.66"/>
</svg>