<?xml version="1.0" encoding="UTF-8"?>
<svg id="Layer_1" data-name="Layer 1" xmlns="http://www.w3.org/2000/svg" viewBox="0 0 4500 3500">
  <defs>
    <style>
      .cls-1 {
        fill: #111638; opacity: 0.376;
      }

      .cls-2 {
        fill: #111638; opacity: 0.402;
      }

      .cls-3 {
        fill: #111638; opacity: 0.286;
      }

      .cls-4 {
        fill: #111638; opacity: 0.173;
      }

      .cls-5 {
        fill: #111638; opacity: 0.041;
      }

      .cls-6 {
        fill: #111638; opacity: 0.361;
      }

      .cls-7 {
        fill: #111638; opacity: 0.335;
      }

      .cls-8 {
        fill: #111638; opacity: 0.394;
      }

      .cls-9 {
        fill: #111638; opacity: 0.049;
      }

      .cls-10 {
        fill: #111638; opacity: 0.245;
      }

      .cls-11 {
        fill: #111638; opacity: 0.057;
      }

      .cls-12 {
        fill: #111638; opacity: 0.222;
      }

      .cls-13 {
        fill: #111638; opacity: 0.075;
      }

      .cls-14 {
        fill: #111638; opacity: 0.237;
      }

      .cls-15 {
        fill: #111638; opacity: 0.206;
      }

      .cls-16 {
        fill: #111638; opacity: 0.384;
      }

      .cls-17 {
        fill: #111638; opacity: 0.147;
      }

      .cls-18 {
        fill: #111638; opacity: 0.320;
      }

      .cls-19 {
        fill: #111638; opacity: 0.312;
      }

      .cls-20 {
        fill: #111638; opacity: 0.271;
      }

      .cls-21 {
        fill: #111638; opacity: 0.116;
      }

      .cls-22 {
        fill: #111638; opacity: 0.065;
      }

      .cls-23 {
        fill: #111638; opacity: 0.294;
      }

      .cls-24 {
        fill: #111638; opacity: 0.345;
      }

      .cls-25 {
        fill: #111638; opacity: 0.214;
      }

      .cls-26 {
        fill: #111638; opacity: 0.263;
      }

      .cls-27 {
        fill: #111638; opacity: 0.278;
      }

      .cls-28 {
        fill: #111638; opacity: 0.106;
      }

      .cls-29 {
        fill: #111638; opacity: 0.155;
      }

      .cls-30 {
        fill: #111638; opacity: 0.196;
      }

      .cls-31 {
        fill: #111638; opacity: 0.255;
      }

      .cls-32 {
        fill: #111638; opacity: 0.000;
      }

      .cls-33 {
        fill: #111638; opacity: 0.425;
      }

      .cls-34 {
        fill: #111638; opacity: 0.304;
      }

      .cls-35 {
        fill: #111638; opacity: 0.131;
      }

      .cls-36 {
        fill: #111638; opacity: 0.098;
      }

      .cls-37 {
        fill: #111638; opacity: 0.188;
      }

      .cls-38 {
        fill: #111638; opacity: 0.124;
      }

      .cls-39 {
        fill: #111638; opacity: 0.410;
      }

      .cls-40 {
        fill: #111638; opacity: 0.139;
      }

      .cls-41 {
        fill: #111638; opacity: 0.016;
      }

      .cls-42 {
        fill: #111638; opacity: 0.180;
      }

      .cls-43 {
        fill: #111638; opacity: 0.082;
      }

      .cls-44 {
        fill: #111638; opacity: 0.025;
      }

      .cls-45 {
        fill: #111638; opacity: 0.229;
      }

      .cls-46 {
        fill: #111638; opacity: 0.165;
      }

      .cls-47 {
        fill: #111638; opacity: 0.418;
      }

      .cls-48 {
        fill: #111638; opacity: 0.327;
      }

      .cls-49 {
        fill: #111638; opacity: 0.008;
      }

      .cls-50 {
        fill: #111638; opacity: 0.353;
      }

      .cls-51 {
        fill: #111638; opacity: 0.090;
      }

      .cls-52 {
        fill: #111638; opacity: 0.033;
      }

      .cls-53 {
        fill: #111638; opacity: 0.369;
      }
    </style>
  </defs>
  <path class="cls-33" d="M2912.62,3452.63c-44.39,10.46-89.03,26.33-133.41,47.37h18.97c156.42-69.63,312.65-73.56,419.17,0h13.32c-36.38-27.35-79.38-45.81-128.22-55-58.08-10.93-121.95-8.36-189.83,7.64Z"/>
  <path class="cls-47" d="M3332.86,3438.83c-45.38-43.01-102.24-71.15-169-83.63-64.29-12.01-135.01-9.07-210.19,8.76-75.03,17.79-150.76,49.51-225.08,94.28-21.56,12.99-42.74,26.92-63.49,41.76h14.45c235.53-164.18,500.8-194.37,647.64-55.18,17.57,16.66,32.8,35.14,45.75,55.18h9.86c-14.05-22.51-30.71-42.95-49.93-61.17Z"/>
  <path class="cls-39" d="M3410.51,3356.91c-49.71-47.12-112.03-77.91-185.24-91.51-70.5-13.1-148.07-9.78-230.55,9.87-82.33,19.61-165.43,54.51-247.01,103.72-57.15,34.47-111.85,75-163.44,121h13.25c279.2-244.44,625.67-308.6,806.97-136.75,39.9,37.82,68.8,84.24,87.19,136.75h9.35c-19.2-56.22-49.54-104.24-90.53-143.09Z"/>
  <path class="cls-2" d="M3488.15,3275c-54.04-51.23-121.83-84.66-201.47-99.39-76.71-14.18-161.12-10.48-250.91,10.99-89.62,21.43-180.11,59.5-268.95,113.16-89.16,53.84-172.88,121.18-248.97,200.24h12.86c314.28-321.98,737.91-420.4,951.1-218.3,60.27,57.13,97.44,132.33,112.9,218.3h9.54c-1.75-9.84-3.77-19.56-6.08-29.13-18.96-78.74-55.97-144.64-110.02-195.87Z"/>
  <path class="cls-8" d="M3565.8,3193.09c-58.37-55.33-131.62-91.42-217.71-107.27-82.91-15.26-174.18-11.19-271.27,12.11-96.91,23.26-194.78,64.5-290.88,122.59-99.42,60.1-192.61,135.7-276.98,224.71-17,17.93-33.43,36.2-49.29,54.77h12.83c14.01-16.23,28.51-32.27,43.51-48.09,341.53-360.3,809.47-473.25,1043.11-251.77,79.65,75.5,121.94,180.28,129.56,299.87h9.99c-2.1-32.96-6.8-64.76-14.12-95.25-20.43-85.12-60.38-156.33-118.75-211.66Z"/>
  <path class="cls-16" d="M3770.93,3338.62c-21.89-91.49-64.78-168.01-127.49-227.45-62.71-59.44-141.41-98.18-233.94-115.15-89.12-16.34-187.24-11.89-291.63,13.23-104.21,25.08-209.46,69.5-312.82,132.03-106.94,64.69-207.19,146.05-297.96,241.81-35.72,37.68-69.12,76.71-100.09,116.9h12.97c29.16-37.45,60.68-74.18,94.52-109.88,90.15-95.1,189.68-175.88,295.83-240.1,102.46-61.99,206.74-106.01,309.92-130.84,103-24.79,199.7-29.2,287.41-13.11,90.55,16.61,167.52,54.46,228.76,112.52,61.25,58.06,103.16,132.89,124.59,222.42,11.93,49.84,17.24,103.02,15.95,159h10.2c1.28-56.78-4.12-110.75-16.24-161.38Z"/>
  <path class="cls-1" d="M3857.32,3272.5c-23.36-97.86-69.19-179.69-136.23-243.24-67.04-63.54-151.21-104.94-250.17-123.03-95.33-17.43-200.3-12.6-312,14.35-111.5,26.9-224.13,74.5-334.75,141.47-114.45,69.29-221.76,156.4-318.94,258.92-54.01,56.98-103.1,116.84-146.89,179.03h13.2c41.85-58.86,89.06-116.42,141.44-171.68,96.52-101.83,203.08-188.34,316.71-257.13,109.68-66.4,221.29-113.58,331.72-140.22,110.24-26.6,213.72-31.38,307.57-14.22,96.89,17.71,179.24,58.18,244.74,120.27,65.51,62.09,110.32,142.16,133.18,237.96,16.56,69.38,21.16,144.79,13.79,225.02h10.73c7.35-81.03,2.64-157.27-14.12-227.5Z"/>
  <path class="cls-53" d="M3943.7,3206.37c-24.82-104.23-73.6-191.38-144.96-259.03-71.37-67.65-161-111.7-266.41-130.91-101.54-18.51-213.36-13.31-332.36,15.47-118.8,28.72-238.8,79.5-356.69,150.91-121.96,73.88-236.33,166.75-339.91,276.03-72.02,75.98-135.83,156.74-190.64,241.16h13.49c52.66-80.32,114.54-158.86,185.26-233.47,419.56-442.62,993.57-582.17,1279.57-311.07,135.16,128.12,182.16,325.39,149.87,544.54h11.58c15.43-105.57,12.5-204.18-8.8-293.63Z"/>
  <path class="cls-6" d="M4030.08,3140.25c-26.29-110.6-78-203.06-153.7-274.82-75.7-71.76-170.8-118.45-282.64-138.79-107.74-19.59-226.42-14.01-352.72,16.58-126.09,30.54-253.48,84.49-378.62,160.34-129.48,78.48-250.9,177.11-360.89,293.14-89.81,94.74-167.61,196.48-232.04,303.29h13.8c61.95-101.74,137.74-201.42,226.69-295.27,109.27-115.28,229.88-213.25,358.47-291.19,124.12-75.23,250.4-128.72,375.32-158.98,124.71-30.21,241.76-35.74,347.89-16.44,109.58,19.93,202.68,65.61,276.71,135.78,74.03,70.17,124.62,160.69,150.38,269.05,24.95,104.95,25.68,222.12,2.18,348.27-.54,2.93-1.12,5.86-1.69,8.78h11.87c.43-2.22.86-4.43,1.28-6.65,23.8-127.76,23.03-246.56-2.29-353.1Z"/>
  <path class="cls-50" d="M4116.47,3074.13c-27.75-116.97-82.41-214.75-162.44-290.61-80.03-75.86-180.59-125.21-298.88-146.67-113.95-20.67-239.47-14.72-373.08,17.7-133.38,32.37-268.15,89.49-400.56,169.78-136.99,83.08-265.47,187.46-381.86,310.25-107.43,113.34-198.64,236.12-271.52,365.42h14.12c70-123.08,159.1-244.06,266.22-357.06,471.58-497.5,1116.31-654.78,1437.2-350.6,171.2,162.28,216.16,423.61,149.25,707.67h12.82c4.07-17.5,7.74-34.96,10.99-52.38,25.23-135.15,24.47-260.81-2.27-373.49Z"/>
  <path class="cls-24" d="M4202.85,3008c-29.22-123.34-86.81-226.43-171.18-306.4-84.37-79.97-190.38-131.97-315.11-154.55-120.16-21.76-252.53-15.43-393.44,18.82-140.68,34.19-282.82,94.49-422.49,179.22-144.51,87.67-280.04,197.81-402.84,327.36-122.8,129.55-225.54,270.78-305.36,419.77-1.39,2.59-2.75,5.19-4.13,7.78h14.51c77.01-144.31,178.92-286.75,304.15-418.86,497.59-524.94,1177.67-691.09,1516.02-370.37,189.08,179.23,232.02,473.16,146.28,789.23h13.47c8.8-32.82,16.27-65.54,22.36-98.11,26.66-142.54,25.91-275.06-2.24-393.89Z"/>
  <path class="cls-7" d="M4289.23,2941.88c-30.69-129.71-91.22-238.11-179.91-322.19-88.7-84.07-200.17-138.73-331.34-162.43-126.37-22.84-265.59-16.13-413.8,19.94-147.97,36.01-297.5,99.49-444.43,188.66-152.02,92.27-294.61,208.16-423.82,344.47-129.21,136.31-237.31,284.89-321.32,441.63-8.58,16.01-16.85,32.03-24.85,48.05h14.91c83.16-165.43,197.47-329.46,340.78-480.65,523.6-552.38,1239.04-727.39,1594.84-390.13,206.91,196.12,247.3,522.96,141.93,870.79h14.13c14.44-48.16,26.16-96.16,35.1-143.85,28.1-149.93,27.35-289.31-2.21-414.28Z"/>
  <path class="cls-48" d="M4375.62,2875.75c-32.15-136.08-95.62-249.79-188.65-337.97-93.03-88.18-209.97-145.48-347.58-170.31-132.57-23.92-278.65-16.84-434.17,21.06-155.27,37.83-312.17,104.48-466.36,198.1-159.53,96.86-309.18,218.51-444.79,361.58-135.61,143.07-249.09,299.01-337.28,463.49-15.77,29.41-30.6,58.86-44.51,88.32h15.38c88.55-186.43,214.9-372.19,376.29-542.45,549.61-579.82,1300.41-763.7,1673.66-409.9,224.69,212.98,262.12,573.01,136.42,952.35h14.77c20.85-63.51,37.22-126.8,49.01-189.58,29.53-157.32,28.79-303.57-2.18-434.67Z"/>
  <path class="cls-18" d="M4486.72,3028.14c-.28-76.66-8.59-150.18-24.72-218.51-33.62-142.45-100.03-261.48-197.39-353.76-97.36-92.29-219.76-152.24-363.81-178.2-69.1-12.45-142.96-16.83-219.52-13-75.75,3.78-154.82,15.62-235,35.18-162.56,39.66-326.85,109.48-488.3,207.54-167.05,101.45-323.75,228.86-465.77,378.68-142.02,149.82-260.87,313.12-353.25,485.35-22.96,42.8-44.03,85.69-63.21,128.59h15.81c93.29-207.31,231.42-414.92,410.88-604.24,575.62-607.26,1361.78-800.01,1752.47-429.67,242.44,229.81,276.49,623.28,129.88,1033.91h15.43c27.92-78.86,49.29-157.46,63.93-235.31,15.25-81.12,22.84-160.7,22.56-236.55Z"/>
  <path class="cls-19" d="M4470.78,3500c10.52-27.86,20.26-55.7,29.22-83.5v-49.73c-12.92,44.3-27.87,88.73-44.82,133.23h15.6Z"/>
  <path class="cls-19" d="M4342.26,2373.95c-101.69-96.39-229.56-159-380.04-186.08-72.19-12.99-149.35-17.54-229.35-13.53-79.14,3.97-161.76,16.36-245.54,36.82-169.85,41.48-341.52,114.48-510.23,216.97-174.56,106.05-338.33,239.21-486.75,395.79-148.42,156.58-272.64,327.23-369.21,507.21-30.15,56.2-57.19,112.54-81.1,168.86h16.25c97.46-228.07,247.11-457.64,444.65-666.03,601.63-634.7,1423.14-836.31,1831.29-449.43,73.35,69.53,129.51,153.99,167.78,251.99v-37.97c-38.32-86.23-91.08-161.42-157.74-224.61Z"/>
  <path class="cls-34" d="M4419.9,2292.03c-106.02-100.5-239.35-165.75-396.28-193.96-75.28-13.53-155.75-18.26-239.17-14.05-82.54,4.16-168.7,17.1-256.08,38.46-177.15,43.3-356.19,119.48-532.17,226.41-182.07,110.65-352.9,249.57-507.72,412.9-154.83,163.34-284.42,341.34-385.17,529.07-37.35,69.59-70.14,139.4-98.3,209.13h16.71c101.13-248.71,262.08-500.35,477.7-727.83,627.64-662.14,1484.51-872.62,1910.11-469.2,33.88,32.11,64,67.17,90.47,104.82v-25.85c-24.1-32.14-50.81-62.14-80.1-89.91Z"/>
  <path class="cls-23" d="M4308.32,2079.71c-68.24-33.05-143.36-57.08-223.29-71.43-78.37-14.07-162.15-18.97-249-14.57-85.93,4.35-175.63,17.84-266.61,40.1-90.91,22.24-183.84,53.42-276.23,92.66-93.22,39.6-186.71,87.78-277.87,143.19-189.59,115.24-367.47,259.92-528.7,430.01-161.23,170.09-296.19,355.46-401.13,550.93-44.15,82.24-82.67,165.96-114.77,249.39h17.08c104.36-269.25,276.39-543.06,510.11-789.62,653.65-689.58,1545.88-908.93,1988.93-488.96,4.46,4.22,8.83,8.51,13.16,12.83v-21.76c-.82-.79-1.63-1.59-2.45-2.37-55.48-52.59-119.14-96.47-189.22-130.41Z"/>
  <path class="cls-3" d="M4146.45,1918.49c-81.46-14.61-168.54-19.68-258.83-15.09-89.33,4.54-182.57,18.58-277.15,41.74-94.5,23.14-191.12,55.56-287.16,96.38-96.92,41.19-194.11,91.29-288.88,148.91-197.1,119.83-382.04,270.27-549.68,447.12-167.64,176.85-307.97,369.57-417.1,572.8-51.27,95.49-95.23,192.9-130.76,289.66h17.5c107.18-289.68,290.18-585.75,542-851.42,649.43-685.13,1525.23-923.96,2003.59-563.03v-19.99c-37.92-27.71-78.54-52.08-121.47-72.87-70.92-34.34-149.01-59.3-232.08-74.2Z"/>
  <path class="cls-27" d="M4207.86,1828.7c-84.55-15.15-174.94-20.4-268.65-15.62-92.72,4.73-189.51,19.33-287.68,43.38-98.1,24.03-198.39,57.71-298.09,100.1-100.61,42.77-201.5,94.8-299.88,154.62-204.62,124.43-396.61,280.62-570.65,464.23-174.04,183.61-319.75,383.68-433.06,594.66-54.48,101.44-101.04,204.97-138.37,307.72-2.69,7.4-5.32,14.8-7.92,22.21h17.96c109.64-310,303.44-628.42,573.39-913.21,641.67-676.94,1496.06-934.36,2005.1-634.86v-19.18c-16.7-9.58-33.79-18.62-51.26-27.07-73.61-35.63-154.65-61.53-240.88-76.97Z"/>
  <path class="cls-20" d="M3990.8,1722.76c-96.11,4.92-196.45,20.07-298.22,45.02-101.69,24.93-205.66,59.86-309.02,103.82-104.3,44.36-208.9,98.31-310.89,160.34-212.13,129.03-411.18,290.97-591.63,481.34-180.45,190.37-331.52,397.79-449.02,616.52-56.5,105.17-104.77,212.5-143.49,319.02-6.2,17.06-12.16,34.12-17.89,51.18h18.43c111.78-330.24,316.24-671.08,604.33-975.01,635.86-670.81,1473.08-944.4,2006.61-696.35v-18.88c-71.18-32.36-148.68-56.18-230.73-70.86-87.64-15.68-181.34-21.12-278.48-16.14Z"/>
  <path class="cls-26" d="M4042.38,1632.44c-99.51,5.11-203.39,20.81-308.75,46.66-105.29,25.83-212.93,62.01-319.94,107.54-107.99,45.94-216.29,101.81-321.9,166.06-219.64,133.62-425.76,301.32-612.61,498.45-186.85,197.12-343.3,411.91-464.99,638.38-58.51,108.89-108.51,220.02-148.61,330.32-9.72,26.72-18.87,53.46-27.46,80.15h18.89c113.63-350.38,328.63-713.72,634.88-1036.8,631.43-666.14,1454.51-954.1,2008.11-750.23v-18.82c-53.77-19.43-110.41-34.51-169.31-45.04-90.73-16.22-187.73-21.83-288.3-16.66Z"/>
  <path class="cls-31" d="M4093.97,1542.13c-102.9,5.3-210.33,21.55-319.29,48.3-108.88,26.73-220.2,64.16-330.87,111.26-111.68,47.53-223.68,105.32-332.9,171.78-227.16,138.22-440.33,311.67-633.59,515.56-193.26,203.88-355.07,426.02-480.95,660.24-60.52,112.62-112.25,227.55-153.74,341.61-13.24,36.4-25.47,72.8-36.67,109.12h19.34c115.21-370.43,340.66-756.35,665.08-1098.59,628-662.52,1439.21-963.46,2009.62-798.23v-18.97c-35.02-9.99-71.03-18.31-107.9-24.89-93.82-16.76-194.13-22.54-298.13-17.19Z"/>
  <path class="cls-10" d="M4145.56,1451.81c-106.3,5.49-217.26,22.3-329.82,49.94-112.48,27.63-227.47,66.31-341.8,114.98-115.37,49.11-231.08,108.83-343.91,177.5-234.67,142.81-454.9,322.03-654.56,532.66-199.67,210.64-366.85,440.13-496.91,682.1-62.54,116.34-115.98,235.08-158.86,352.91-16.77,46.08-31.97,92.18-45.56,138.1h19.81c116.55-390.41,352.34-798.96,694.94-1160.39,625.34-659.71,1426.42-972.48,2011.13-841.55v-19.26c-15.34-3.39-30.84-6.49-46.49-9.28-96.91-17.3-200.53-23.26-307.96-17.71Z"/>
  <path class="cls-14" d="M4197.14,1361.49c-109.69,5.68-224.21,23.04-340.36,51.58-116.07,28.53-234.75,68.46-352.73,118.7-119.06,50.7-238.47,112.34-354.92,183.21-242.19,147.41-469.47,332.38-675.54,549.77-206.07,217.4-378.63,454.25-512.88,703.97-64.55,120.07-119.72,242.6-163.98,364.2-20.3,55.77-38.38,111.57-54.17,167.07h19.73c15.31-53.35,32.75-106.97,52.26-160.58,43.95-120.75,98.74-242.44,162.86-361.71,133.45-248.24,305.02-483.72,509.94-699.9,204.91-216.18,430.88-400.09,671.63-546.62,115.67-70.4,234.26-131.62,352.49-181.96,117.05-49.84,234.75-89.45,349.83-117.73,115-28.26,228.32-45.44,336.81-51.06,105.14-5.45,206.63-.07,301.88,15.96v-19.23c-95.69-15.85-197.49-21.13-302.86-15.67Z"/>
  <path class="cls-45" d="M4248.73,1271.17c-113.08,5.87-231.14,23.78-350.9,53.22-119.67,29.42-242.02,70.61-363.66,122.42-122.75,52.28-245.87,115.85-365.92,188.93-249.7,152-484.04,342.73-696.52,566.88-212.48,224.16-390.4,468.36-528.84,725.83-66.56,123.79-123.46,250.13-169.1,375.5-23.84,65.48-44.72,130.99-62.5,196.04h20.75c118.56-430.14,374.8-884.13,753.81-1283.98,211.29-222.9,444.28-412.54,692.51-563.65,119.26-72.6,241.54-135.73,363.43-187.65,120.68-51.4,242.03-92.25,360.68-121.43,118.56-29.15,235.4-46.88,347.26-52.69,86.25-4.48,170.12-1.89,250.26,7.67v-19.6c-80.54-9.47-164.74-12-251.27-7.51Z"/>
  <path class="cls-12" d="M4300.32,1180.86c-116.48,6.06-238.08,24.52-361.43,54.87-123.26,30.32-249.29,72.76-374.59,126.14-126.44,53.87-253.26,119.36-376.93,194.65-257.21,156.6-498.61,353.08-717.49,583.99-218.88,230.91-402.18,482.47-544.8,747.69-68.57,127.52-127.19,257.65-174.22,386.8-27.39,75.19-50.98,150.44-70.59,225.01h21.23c119.28-449.9,385.62-926.69,782.87-1345.77,217.67-229.63,457.69-425,713.39-580.68,122.85-74.79,248.81-139.84,374.37-193.34,124.31-52.96,249.31-95.06,371.54-125.12,122.13-30.04,242.48-48.32,357.7-54.31,67.86-3.53,134.28-2.81,198.65,2.1v-20c-64.75-4.88-131.51-5.57-199.68-2.02Z"/>
  <path class="cls-25" d="M4351.9,1090.54c-119.87,6.25-245.02,25.26-371.97,56.51-126.86,31.22-256.56,74.91-385.52,129.86-130.13,55.45-260.65,122.87-387.93,200.37-264.73,161.19-513.18,363.43-738.47,601.1-225.29,237.67-413.96,496.58-560.77,769.55-70.59,131.24-130.93,265.18-179.34,398.09-30.94,84.93-57.18,169.91-78.46,253.98h21.7c119.82-469.6,396.2-969.23,811.7-1407.57,224.04-236.36,471.09-437.45,734.27-597.7,126.45-76.99,256.09-143.95,385.32-199.02,127.95-54.52,256.6-97.86,382.39-128.82,125.7-30.93,249.56-49.76,368.15-55.94,49.84-2.6,98.93-2.97,147.03-1.13v-20.45c-48.47-1.82-97.91-1.44-148.1,1.18Z"/>
  <path class="cls-15" d="M4403.49,1000.22c-123.27,6.44-251.96,26.01-382.5,58.15-130.45,32.12-263.84,77.06-396.45,133.58-133.82,57.04-268.05,126.37-398.94,206.09-272.24,165.79-527.76,373.78-759.45,618.21-231.69,244.43-425.73,510.7-576.73,791.41-72.6,134.97-134.66,272.71-184.47,409.39-34.5,94.67-63.31,189.42-86.11,282.95h22.17c120.2-489.23,406.57-1011.77,840.32-1469.36,618.85-652.86,1385.73-1013.21,2018.66-1011.31v-21.47c-31.83-.11-64.02.67-96.51,2.36Z"/>
  <path class="cls-30" d="M4062.04,969.69c-134.04,33.02-271.11,79.21-407.38,137.3-137.51,58.62-275.44,129.88-409.95,211.8-279.75,170.38-542.33,384.13-780.42,635.32-238.1,251.19-437.51,524.81-592.69,813.27-74.61,138.69-138.4,280.23-189.59,420.68-38.06,104.43-69.41,208.95-93.59,311.93h22.66c120.43-508.81,416.72-1054.29,868.74-1531.16,618.39-652.38,1380.58-1020.59,2020.17-1038.71v-22.01c-14.91.41-29.88,1-44.92,1.79-126.66,6.63-258.9,26.75-393.04,59.79Z"/>
  <path class="cls-37" d="M3684.78,1022.04c-141.21,60.21-282.83,133.39-420.95,217.52-287.27,174.98-556.9,394.48-801.4,652.43-244.5,257.94-449.28,538.92-608.65,835.13-76.63,142.42-142.13,287.76-194.71,431.98-41.63,114.21-75.44,228.52-100.87,340.9h23.14c120.51-528.33,426.68-1096.79,896.98-1592.95,618.11-652.09,1376.09-1027.73,2021.68-1064.52v-22.57c-128.03,7.17-261.52,27.7-396.91,61.06-137.64,33.91-278.38,81.36-418.3,141.02Z"/>
  <path class="cls-42" d="M3714.91,937.08c-144.89,61.79-290.23,136.9-431.96,223.24-144.31,87.91-286.38,188.38-422.26,298.62-139.4,113.1-274.02,237.89-400.11,370.91-126.1,133.03-243.52,274.12-349,419.37-102.82,141.58-195.55,288.82-275.62,437.62-78.64,146.14-145.87,295.28-199.83,443.28-45.21,124-81.44,248.11-108,369.87h22.92c26.25-119.25,61.83-240.77,106.11-362.2,53.59-146.99,120.38-295.14,198.51-440.34,79.6-147.93,171.79-294.31,274.02-435.08,104.91-144.46,221.7-284.8,347.13-417.13,617.98-651.95,1372.17-1034.67,2023.18-1088.92v-23.13c-115.54,9.5-234.96,29.33-355.86,59.13-141.23,34.81-285.65,83.51-429.23,144.74Z"/>
  <path class="cls-4" d="M3745.03,852.13c-148.59,63.38-297.62,140.41-442.97,228.96-147.99,90.16-293.68,193.2-433.03,306.26-142.96,115.99-281.01,243.97-410.32,380.39-129.31,136.42-249.73,281.12-357.91,430.07-105.45,145.19-200.55,296.18-282.67,448.78-80.65,149.87-149.61,302.81-204.95,454.57-48.79,133.8-87.38,267.73-114.96,398.84h24.11c120.3-567.23,446.08-1181.76,952.99-1716.54,617.98-651.95,1368.73-1041.41,2024.69-1112.04v-23.69c-102.77,10.94-208.23,29.65-314.81,55.93-144.83,35.71-292.92,85.66-440.16,148.46Z"/>
  <path class="cls-46" d="M3775.15,767.17c-152.28,64.96-305.01,143.92-453.97,234.67-151.67,92.41-300.98,198.02-443.8,313.89-146.51,118.88-288,250.05-420.54,389.86-132.53,139.82-255.95,288.12-366.83,440.78-108.07,148.8-205.55,303.55-289.72,459.94-82.66,153.59-153.34,310.34-210.07,465.87-52.38,143.62-93.3,287.38-121.79,427.81h24.6c120.02-586.6,455.54-1224.23,980.76-1778.33,618.09-652.06,1365.73-1047.96,2026.2-1134.01v-24.27c-89.78,11.56-181.36,28.81-273.76,51.6-148.42,36.61-300.19,87.81-451.09,152.18Z"/>
  <path class="cls-29" d="M3805.27,682.21c-155.97,66.55-312.41,147.43-464.98,240.39-155.35,94.66-308.29,202.84-454.56,321.53-150.07,121.77-294.99,256.12-430.75,399.34-135.75,143.21-262.17,295.11-375.74,451.48-110.7,152.41-210.55,310.92-296.77,471.1-84.68,157.32-157.08,317.86-215.19,477.17-55.98,153.45-99.18,307.05-128.48,456.79h25.07c119.63-605.93,464.86-1266.69,1008.42-1840.13,618.29-652.27,1363.1-1054.32,2027.71-1154.93v-24.85c-76.62,11.47-154.37,26.9-232.71,46.22-152.02,37.51-307.47,89.96-462.02,155.9Z"/>
  <path class="cls-17" d="M3835.39,597.26c-159.66,68.13-319.8,150.94-475.98,246.11-159.03,96.91-315.59,207.66-465.33,329.16-153.62,124.66-301.98,262.2-440.96,408.81-138.97,146.61-268.39,302.11-384.65,462.18-113.33,156.03-215.55,318.28-303.82,482.26-86.69,161.05-160.81,325.39-220.31,488.46-58.96,161.59-104.08,323.36-134.11,480.81-.31,1.65-.62,3.3-.93,4.95h25.56c119.14-625.22,474.03-1309.14,1035.93-1901.92,618.56-652.56,1360.81-1060.52,2029.21-1174.91v-25.45c-63.31,10.71-127.29,24.03-191.66,39.91-155.62,38.4-314.74,92.11-472.95,159.62Z"/>
  <path class="cls-40" d="M3865.52,512.3c-163.35,69.72-327.2,154.44-486.99,251.83-162.71,99.16-322.89,212.47-476.1,336.8-157.18,127.55-308.97,268.28-451.16,418.28-142.19,150.01-274.61,309.11-393.57,472.88-115.96,159.64-220.55,325.65-310.87,493.42-88.7,164.77-164.55,332.91-225.44,499.76-60.33,165.33-106.51,330.84-137.24,491.92-1.45,7.61-2.86,15.21-4.24,22.81h26.05c118.56-644.47,483.07-1351.57,1063.32-1963.72,618.91-652.93,1358.81-1066.55,2030.72-1194.01v-26.05c-49.88,9.36-100.13,20.27-150.6,32.73-159.21,39.3-322.01,94.26-483.88,163.34Z"/>
  <path class="cls-35" d="M3895.64,427.34c-167.04,71.3-334.59,157.95-498,257.55-166.38,101.41-330.19,217.29-486.86,344.43-160.74,130.44-315.97,274.35-461.38,427.76-145.41,153.4-280.82,316.1-402.48,483.58-118.58,163.25-225.55,333.02-317.91,504.58-90.72,168.5-168.29,340.44-230.56,511.05-61.71,169.07-108.93,338.31-140.37,503.03-2.59,13.58-5.07,27.14-7.45,40.67h26.53c117.89-663.68,492-1394,1090.61-2025.51,619.31-653.36,1357.08-1072.42,2032.23-1212.3v-26.66c-36.37,7.45-72.9,15.7-109.55,24.75-162.8,40.2-329.28,96.41-494.81,167.06Z"/>
  <path class="cls-38" d="M3925.76,342.39c-170.73,72.89-341.98,161.46-509,263.26-170.06,103.66-337.49,222.11-497.63,352.07-164.29,133.33-322.96,280.43-471.59,437.23-148.63,156.8-287.04,323.1-411.4,494.29-121.21,166.86-230.55,340.38-324.96,515.74-92.73,172.22-172.02,347.97-235.68,522.35-63.08,172.8-111.36,345.79-143.5,514.14-3.73,19.56-7.24,39.07-10.55,58.53h27.02c117.13-682.86,500.82-1436.41,1117.79-2087.3,619.77-653.84,1355.57-1078.14,2033.74-1229.85v-27.28c-22.78,5.04-45.62,10.38-68.5,16.03-166.4,41.1-336.55,98.56-505.74,170.78Z"/>
  <path class="cls-21" d="M3955.88,257.43c-174.42,74.47-349.38,164.97-520.01,268.98-173.74,105.91-344.79,226.93-508.4,359.7-167.85,136.22-329.95,286.51-481.79,446.7-151.85,160.2-293.26,330.1-420.31,504.99-123.84,170.47-235.54,347.75-332.01,526.9-94.74,175.95-175.76,355.49-240.8,533.65-64.45,176.54-113.79,353.26-146.63,525.26-4.88,25.54-9.39,51.01-13.55,76.39h27.5c116.29-702,509.52-1478.82,1144.88-2149.1C3085.03,696.53,3819.03,267.18,4500,104.19v-27.9c-9.14,2.17-18.29,4.37-27.45,6.64-169.99,42-343.82,100.71-516.67,174.5Z"/>
  <path class="cls-28" d="M3454.99,447.18c-177.42,108.16-352.09,231.75-519.16,367.34-171.4,139.11-336.94,292.59-492,456.18-155.07,163.59-299.48,337.09-429.22,515.69-126.47,174.08-240.54,355.11-339.06,538.06-96.75,179.67-179.49,363.02-245.92,544.94-65.82,180.27-116.21,360.74-149.77,536.37-6.02,31.53-11.51,62.96-16.46,94.25h27.99c115.38-721.11,518.13-1521.21,1171.87-2210.89C3084.06,634.17,3816.42,199.92,4500,26.16V0h-9.25c-166.3,42.44-335.99,100.41-504.75,172.47-178.11,76.06-356.77,168.48-531.02,274.7Z"/>
  <path class="cls-36" d="M3474.11,367.94c-181.1,110.41-359.39,236.57-529.93,374.97-174.96,142-343.93,298.66-502.22,465.65-158.29,166.99-305.7,344.09-438.14,526.39-129.09,177.7-245.54,362.48-346.11,549.22-98.77,183.4-183.23,370.55-251.04,556.24-67.2,184.01-118.64,368.21-152.9,547.48-4.68,24.49-9.03,48.91-13.08,73.25-2.11,12.98-4.13,25.93-6.06,38.85h28.33c114.4-740.19,526.64-1563.6,1198.78-2272.69C3031.39,626.36,3693.02,207.42,4327.78,0h-87.22c-74.75,26.39-149.67,55.59-224.42,87.52-181.8,77.64-364.17,171.99-542.02,280.42Z"/>
  <path class="cls-51" d="M3493.22,288.7c-184.78,112.66-366.69,241.38-540.7,382.61-178.52,144.89-350.92,304.74-512.42,475.12-161.51,170.38-311.92,351.09-447.05,537.09-131.72,181.31-250.54,369.85-353.16,560.38-100.78,187.12-186.97,378.07-256.16,567.53-61.76,169.11-110.48,338.38-145.09,503.99-12.69,62.02-23.45,123.58-32.24,184.57h28.25c1.93-12.93,3.95-25.88,6.06-38.85,121.73-749.18,540.76-1579.53,1219.54-2295.63C2970.74,626.95,3553.64,231.65,4126.76,0h-74.48c-2.01.86-4.02,1.7-6.04,2.56-185.49,79.23-371.56,175.5-553.03,286.14Z"/>
  <path class="cls-43" d="M2960.87,599.71c-182.07,147.78-357.91,310.82-522.64,484.6-164.72,173.78-318.13,358.08-455.97,547.8-134.35,184.92-255.54,377.21-360.21,571.54-102.79,190.85-190.7,385.6-261.29,578.83-48.66,133.21-89.37,266.52-121.66,398.14-25.95,107.8-46.28,214.43-60.91,319.4h28.18c8.8-60.99,19.55-122.55,32.24-184.57,149.28-729.31,566.71-1522.4,1220.1-2211.7C2921.46,615.56,3442.5,242.78,3963.02,0h-67.36c-128.84,62.44-257.17,132.54-383.32,209.46-188.45,114.91-373.99,246.2-551.46,390.25Z"/>
  <path class="cls-13" d="M2969.22,528.1c-185.63,150.67-364.9,316.9-532.85,494.07-167.94,177.17-324.35,365.08-464.88,558.5-136.98,188.53-260.54,384.58-367.26,582.7-104.81,194.57-194.44,393.12-266.41,590.13-35.76,97.88-67.31,195.82-94.48,293.12-42.13,153.53-73.31,305.12-93.26,453.38h28.11c14.62-104.97,34.96-211.6,60.91-319.4,171.14-710.93,586.5-1472.35,1218.11-2138.67C2878.87,597.11,3347.99,246.26,3821.77,0h-62.85c-76.35,40.92-152.29,84.38-227.47,130.22-192.13,117.16-381.29,251.02-562.23,397.88Z"/>
  <path class="cls-22" d="M2977.57,456.5c-189.18,153.56-371.89,322.97-543.06,503.54-171.16,180.57-330.57,372.08-473.79,569.2-139.61,192.14-265.54,391.94-374.31,593.86-106.82,198.3-198.17,400.65-271.53,601.42-22.86,62.57-44.04,125.17-63.48,187.61-61.17,199.56-104.48,396.47-129.35,587.86h28.05c19.95-148.27,51.12-299.86,93.26-453.38,189.82-691.64,602.04-1422.62,1212.36-2066.48C2840.73,573.95,3264.59,244.65,3695.9,0h-59.75c-28.62,16.66-57.15,33.65-85.58,50.98-195.81,119.4-388.6,255.84-573,405.52Z"/>
  <path class="cls-11" d="M2432.65,897.91c-174.38,183.97-336.79,379.07-482.71,579.9-142.23,195.75-270.54,399.31-381.36,605.02-108.83,202.03-201.91,408.17-276.65,612.72-10.15,27.79-19.97,55.57-29.46,83.35-82.58,245.2-139.04,487.25-168.39,721.09h27.97c24.88-191.39,68.18-388.31,129.35-587.86,205.76-671.22,613.72-1372.33,1202.8-1993.79C2805.82,547.4,3189.22,239.38,3581.39,0h-57.46c-183.75,114.77-364.52,244.08-538.01,384.9-192.74,156.45-378.88,329.05-553.27,513.02Z"/>
  <path class="cls-9" d="M2430.79,835.78c-177.6,187.36-343.01,386.07-491.62,590.6-144.86,199.36-275.54,406.68-388.41,616.18-107.59,199.71-200.07,403.39-275.02,605.68-105.84,289.92-176.21,576.51-209.57,851.76h27.91c29.35-233.84,85.81-475.9,168.39-721.09,219.04-650.34,621.85-1322.75,1190.22-1922.36C2773.37,518.26,3119.99,231.35,3475.73,0h-55.73c-145.04,96.29-287.65,201.21-425.72,313.29-196.3,159.34-385.88,335.13-563.48,522.49Z"/>
  <path class="cls-5" d="M2428.93,773.65c-180.82,190.76-349.23,393.07-500.54,601.31-147.49,202.98-280.54,414.04-395.45,627.34-92.49,171.67-174,346.21-243.08,520.36-130.1,332.82-214.71,662.48-251.56,977.34h27.86c33.36-275.24,103.73-561.84,209.57-851.76,229.84-629.58,626.93-1274.82,1175.45-1853.49C2742.83,487.08,3055.56,221.16,3377.15,0h-54.39c-108.68,76.13-215.68,156.9-320.14,241.69-199.85,162.23-392.87,341.21-573.69,531.96Z"/>
  <path class="cls-52" d="M2427.07,711.52c-184.04,194.16-355.44,400.06-509.45,612.01-150.12,206.59-285.54,421.41-402.5,638.5-77.74,144.29-147.86,290.58-209.53,436.98-155.73,374.93-255.12,747.27-295.09,1100.99h27.81c36.85-314.86,121.45-644.52,251.56-977.34,238.41-609.88,629.61-1230.34,1159.82-1789.7C2713.86,454.26,2995.03,209.23,3284.43,0h-53.38c-74.37,54.68-147.83,111.43-220.09,170.09-203.41,165.12-399.86,347.28-583.9,541.44Z"/>
  <path class="cls-44" d="M2425.21,649.4c-187.26,197.55-361.66,407.06-518.37,622.71-152.74,210.2-290.54,428.77-409.55,649.66-62.52,116.02-120.19,233.32-172.6,350.93-183.69,417.79-299.04,834.01-341.93,1227.31h27.74c39.97-353.72,139.36-726.06,295.09-1100.99,245.2-590.36,630.08-1187.16,1142.59-1727.84C2686.17,420.09,2937.72,195.86,3196.63,0h-52.6c-41.92,32.2-83.51,65.04-124.71,98.48-206.96,168.01-406.85,353.36-594.11,550.91Z"/>
  <path class="cls-41" d="M2423.35,587.27c-190.48,200.95-367.88,414.06-527.28,633.41-155.37,213.81-295.54,436.14-416.6,660.82-47.58,88.31-92.41,177.34-134.3,266.69-212.83,459.83-344.64,919.61-390.12,1351.82h27.71c42.89-393.3,158.24-809.52,341.93-1227.31,250.44-569.59,627.9-1142.09,1121.98-1663.32C2659.56,384.78,2883.12,181.31,3113.04,0h-52.01c-11.15,8.92-22.28,17.87-33.37,26.88-210.52,170.9-413.84,359.44-604.32,560.38Z"/>
  <path class="cls-49" d="M2421.49,525.14c-193.7,204.34-374.1,421.05-536.19,644.11-158,217.42-300.54,443.51-423.65,671.98-31.94,59.28-62.66,118.88-92.1,178.69-244.57,502.89-394.2,1007.88-442.15,1480.09h27.66c45.49-432.21,177.29-891.99,390.12-1351.82,254.15-549.1,623.82-1098.26,1099.99-1600.6C2633.87,348.5,2830.8,165.74,3033.09,0h-51.51c-194.7,161.77-382.86,338.17-560.09,525.13Z"/>
  <path class="cls-32" d="M2419.63,463.01c-196.92,207.74-380.32,428.05-545.11,654.82-160.63,221.03-305.53,450.87-430.7,683.13-122.92,228.1-228.06,460.86-312.5,691.79-83.67,228.84-147.75,457.9-190.46,680.83-21.09,110.1-37.05,219.15-47.82,326.42h34.36c47.95-472.21,197.58-977.19,442.15-1480.09,256.32-527.06,616.93-1051.82,1074.12-1534.13C2608.97,311.39,2780.5,149.31,2956.37,0h-51.15c-168.16,144.68-330.97,299.89-485.59,463.01Z"/>
</svg>