<?xml version="1.0" encoding="UTF-8"?>
<svg id="City" xmlns="http://www.w3.org/2000/svg" viewBox="0 0 770.33 870.05">
  <defs>
    <style>
      .cls-1 {
        stroke-width: 1.37px;
      }

      .cls-1, .cls-2, .cls-3, .cls-4, .cls-5, .cls-6 {
        fill: none;
        stroke: #191c3c;
        stroke-miterlimit: 10;
      }

      .cls-2 {
        stroke-width: 9.75px;
      }

      .cls-3 {
        stroke-width: 7.05px;
      }

      .cls-4 {
        stroke-width: 12.99px;
      }

      .cls-5 {
        stroke-width: 5px;
      }

      .cls-6 {
        stroke-width: 3px;
      }
    </style>
  </defs>
  <circle class="cls-5" cx="385.16" cy="435.02" r="112.47"/>
  <circle class="cls-1" cx="385.16" cy="435.02" r="30.72"/>
  <circle class="cls-3" cx="385.16" cy="435.02" r="158.51"/>
  <circle class="cls-2" cx="385.16" cy="435.02" r="219.22"/>
  <circle class="cls-4" cx="385.16" cy="435.02" r="292.31"/>
  <line class="cls-6" x1="385.16" y1="547.5" x2="385.16" y2="593.53"/>
  <line class="cls-6" x1="497.64" y1="422.33" x2="541.08" y2="463.71"/>
  <line class="cls-6" x1="488.44" y1="390.42" x2="510.89" y2="338.51"/>
  <line class="cls-6" x1="324.74" y1="335.01" x2="303.11" y2="231.68"/>
  <line class="cls-6" x1="288.72" y1="378.2" x2="173.13" y2="379.14"/>
  <line class="cls-6" x1="272.69" y1="447.99" x2="165.94" y2="634.22"/>
  <line class="cls-6" x1="332.19" y1="529.88" x2="291.11" y2="711.87"/>
  <line class="cls-6" x1="472.37" y1="506.06" x2="543.67" y2="672.56"/>
  <line class="cls-6" x1="451.84" y1="344.44" x2="519.36" y2="174.58"/>
  <line class="cls-6" x1="303.11" y1="360.14" x2="150.89" y2="260.18"/>
  <line class="cls-6" x1="272.69" y1="416.04" x2="92.85" y2="452.93"/>
  <line class="cls-6" x1="497.64" y1="406.69" x2="677.47" y2="398.28"/>
  <line class="cls-6" x1="488.44" y1="474.4" x2="639.03" y2="580.02"/>
  <line class="cls-6" x1="437.27" y1="534.72" x2="415.88" y2="720.72"/>
</svg>