<?xml version="1.0" encoding="UTF-8"?>
<svg id="Layer_1" data-name="Layer 1" xmlns="http://www.w3.org/2000/svg" viewBox="0 0 413.58 146.42">
  <defs>
    <style>
      .cls-1 {
        fill: #fff;
      }
    </style>
  </defs>
  <g>
    <polygon class="cls-1" points="171.78 86.77 171.78 59.62 191.68 59.62 191.68 64.54 176.78 64.54 176.78 70.94 189.89 70.94 189.89 75.36 176.78 75.36 176.78 81.84 191.68 81.84 191.68 86.77 171.78 86.77"/>
    <path class="cls-1" d="M196.06,86.77v-27.15h14.78c5.39,0,7.95,3.41,7.95,7.76v.12c0,3.03-1.28,5.55-4.11,6.79v.39c1.75.7,2.83,2.02,3.07,4.3l.31,3.03c.19,2.25.62,3.1,1.12,4.27v.5h-5.2c-.54-1.2-.81-2.37-1.09-4.77l-.23-2.21c-.39-3.14-1.67-3.92-3.84-3.92h-7.76v10.9h-5ZM201.07,71.53h9.15c2.29,0,3.8-1.28,3.8-3.45v-.12c0-2.29-1.51-3.53-3.8-3.53h-9.15v7.1h0Z"/>
    <path class="cls-1" d="M222.95,86.77v-27.15h14.39c5.43,0,7.95,3.45,7.95,7.25v.15c0,2.52-1.24,4.65-3.68,5.7v.39c2.75,1.09,4.07,3.41,4.07,6.21v.15c0,3.99-2.56,7.29-7.95,7.29h-14.78ZM227.95,70.9h8.84c2.21,0,3.72-1.24,3.72-3.1v-.12c0-1.98-1.51-3.3-3.8-3.3h-8.77v6.52h.01ZM227.95,82h9.15c2.29,0,3.8-1.32,3.8-3.38v-.12c0-2.13-1.51-3.34-3.8-3.34h-9.15v6.83h0Z"/>
    <polygon class="cls-1" points="248.55 86.77 248.55 81.84 254.33 81.84 254.33 64.54 248.55 64.54 248.55 59.62 265.11 59.62 265.11 64.54 259.34 64.54 259.34 81.84 265.11 81.84 265.11 86.77 248.55 86.77"/>
    <polygon class="cls-1" points="269.35 86.77 269.35 59.62 274.35 59.62 274.35 81.84 288.86 81.84 288.86 86.77 269.35 86.77"/>
    <polygon class="cls-1" points="298.4 86.77 290.26 60.08 290.26 59.62 295.34 59.62 302.05 81.45 303.56 81.45 310.31 59.62 315.35 59.62 315.35 60.08 307.25 86.77 298.4 86.77"/>
    <polygon class="cls-1" points="318.42 86.77 318.42 59.62 338.32 59.62 338.32 64.54 323.42 64.54 323.42 70.94 336.53 70.94 336.53 75.36 323.42 75.36 323.42 81.84 338.32 81.84 338.32 86.77 318.42 86.77"/>
    <path class="cls-1" d="M342.7,86.77v-27.15h14.78c5.39,0,7.95,3.41,7.95,7.76v.12c0,3.03-1.28,5.55-4.11,6.79v.39c1.75.7,2.83,2.02,3.07,4.3l.31,3.03c.19,2.25.62,3.1,1.12,4.27v.5h-5.2c-.54-1.2-.81-2.37-1.09-4.77l-.23-2.21c-.39-3.14-1.67-3.92-3.84-3.92h-7.76v10.9h-5ZM347.71,71.53h9.15c2.29,0,3.8-1.28,3.8-3.45v-.12c0-2.29-1.51-3.53-3.8-3.53h-9.15v7.1h0Z"/>
    <path class="cls-1" d="M367.84,76.92l4.97-.15c0,3.45,2.72,5.82,6.44,5.82,3.38,0,5.74-1.47,5.74-3.88,0-1.78-1.36-2.56-4.62-3.06l-3.3-.54c-5.78-.97-8.53-3.18-8.53-7.45s3.76-8.57,10.24-8.57c5.31,0,11.13,3.45,11.13,10.24l-4.96.12c0-3.26-2.68-5.62-6.17-5.62-3.1,0-5.31,1.67-5.31,3.84,0,1.9,1.4,2.56,4.73,3.1l3.3.54c5.59.93,8.46,3.41,8.46,7.56,0,4.96-3.92,8.46-10.71,8.46-5.97,0-11.4-3.68-11.4-10.39"/>
    <polygon class="cls-1" points="393.68 86.77 393.68 59.62 413.58 59.62 413.58 64.54 398.68 64.54 398.68 70.94 411.79 70.94 411.79 75.36 398.68 75.36 398.68 81.84 413.58 81.84 413.58 86.77 393.68 86.77"/>
  </g>
  <g>
    <path class="cls-1" d="M.02,63.5l6.12-.02.02,5.54-6.12.02v4.16l.03,4.16,6.12-.02.02,5.54-6.12.02.03,8.19,6.21-.02v-1.32l21.47-.07c0-.06,7.99-8.12,11.13-11.29.46-.46.13-1.25-.53-1.25l-20.22.07c-2.24,0-4.07-1.81-4.08-4.05,0-2.24,1.81-4.07,4.05-4.08l20.22-.07c.65,0,.98-.79.52-1.25-3.16-3.15-11.21-11.17-11.21-11.23l-21.47.07v-1.32l-6.21.02.03,8.19h0ZM18.22,81.91v3.19l-5.08.02c-.88,0-1.6-.71-1.6-1.59s.71-1.6,1.59-1.6l5.09-.02ZM18.15,61.2v3.19l-5.08.02c-.88,0-1.6-.71-1.6-1.59s.71-1.6,1.59-1.6l5.09-.02Z"/>
    <path class="cls-1" d="M18.05,40.84l22.48,22.95c2.26,2.31,3.59,5.18,4,8.16.02.14.08.66.09,1.17,0,.48-.04.95-.05,1.03-.36,3.09-1.7,6.08-4.04,8.47l-22.48,22.95,9.52,9.33,21.57-21.85c5.43-5.5,8.11-12.68,8.07-19.84.05-7.16-2.64-14.34-8.07-19.84l-21.57-21.85-9.52,9.33h0ZM32.41,44.91l-.23.23,12.95,12.95c4.16,4.17,6.25,9.64,6.25,15.11h0c0,5.47-2.08,10.94-6.25,15.11l-12.95,12.96.23.23-.84.84-.84-.84.84-.84.23.23,12.95-12.95c4.06-4.06,6.09-9.39,6.09-14.72s-2.03-10.66-6.09-14.72l-12.95-12.95-.23.23-.84-.84.84-.84.84.84v-.03Z"/>
    <path class="cls-1" d="M146.45,82.92l-6.12.02-.02-5.54,6.12-.02v-4.16l-.03-4.16-6.12.02-.02-5.54,6.12-.02-.03-8.19-6.21.02v1.32l-21.47.07c0,.06-7.99,8.12-11.13,11.29-.46.46-.13,1.25.53,1.25l20.22-.07c2.24,0,4.07,1.81,4.08,4.05,0,2.24-1.81,4.07-4.05,4.08l-20.22.07c-.65,0-.98.79-.52,1.25,3.16,3.15,11.21,11.17,11.21,11.23l21.47-.07v1.32l6.21-.02-.03-8.19h0ZM128.25,64.51v-3.19l5.08-.02c.88,0,1.6.71,1.6,1.59s-.71,1.6-1.59,1.6l-5.09.02ZM128.32,85.22v-3.19l5.08-.02c.88,0,1.6.71,1.6,1.59s-.71,1.6-1.59,1.6l-5.09.02Z"/>
    <path class="cls-1" d="M128.42,105.58l-22.48-22.95c-2.26-2.31-3.59-5.18-4-8.16-.02-.14-.08-.66-.09-1.17,0-.48.04-.95.05-1.03.36-3.09,1.7-6.08,4.04-8.47l22.48-22.95-9.52-9.33-21.57,21.85c-5.43,5.5-8.11,12.68-8.07,19.84-.05,7.16,2.64,14.34,8.07,19.84l21.57,21.85,9.52-9.33h0ZM114.06,101.51l.23-.23-12.95-12.95c-4.16-4.17-6.25-9.64-6.25-15.11h0c0-5.47,2.08-10.94,6.25-15.11l12.95-12.96-.23-.23.84-.84.84.84-.84.84-.23-.23-12.95,12.95c-4.06,4.06-6.09,9.39-6.09,14.72s2.03,10.66,6.09,14.72l12.95,12.95.23-.23.84.84-.84.84-.84-.84v.03Z"/>
    <path class="cls-1" d="M63.54,146.41l-.02-6.12,5.54-.02.02,6.12h4.16l4.16-.03-.02-6.12,5.54-.02.02,6.12,8.19-.03-.02-6.21h-1.32l-.07-21.47c-.06,0-8.12-7.99-11.29-11.13-.46-.46-1.25-.13-1.25.52l.07,20.22c0,2.24-1.81,4.07-4.05,4.08-2.24,0-4.07-1.81-4.08-4.05l-.07-20.22c0-.65-.79-.98-1.25-.52-3.15,3.16-11.17,11.21-11.23,11.21l.07,21.47h-1.32l.02,6.21,8.19-.03v.02ZM81.94,128.22h3.19l.02,5.07c0,.88-.71,1.6-1.59,1.6s-1.6-.71-1.6-1.59l-.02-5.09h0ZM61.24,128.28h3.19l.02,5.08c0,.88-.71,1.6-1.59,1.6s-1.6-.71-1.6-1.59l-.02-5.09h0Z"/>
    <path class="cls-1" d="M40.87,128.39l22.95-22.48c2.31-2.26,5.18-3.59,8.16-4,.14-.02.66-.08,1.17-.09.48,0,.95.04,1.03.05,3.09.36,6.08,1.7,8.47,4.04l22.95,22.48,9.33-9.52-21.85-21.57c-5.5-5.43-12.68-8.11-19.84-8.07-7.16-.05-14.34,2.64-19.84,8.07l-21.85,21.57,9.33,9.52h-.01ZM44.94,114.02l.23.23,12.95-12.95c4.17-4.16,9.63-6.25,15.11-6.25h0c5.47,0,10.94,2.08,15.1,6.25l12.96,12.95.23-.23.84.84-.84.84-.84-.84.23-.23-12.95-12.95c-4.06-4.06-9.39-6.09-14.72-6.09s-10.66,2.03-14.72,6.09l-12.95,12.95.23.23-.84.84-.84-.84.84-.84h-.02Z"/>
    <path class="cls-1" d="M82.94,0l.02,6.12-5.54.02-.02-6.12h-4.16l-4.16.03.02,6.12-5.54.02-.02-6.12-8.19.03.02,6.21h1.32l.07,21.47c.06,0,8.12,7.99,11.29,11.13.46.46,1.25.13,1.25-.52l-.07-20.22c0-2.24,1.81-4.07,4.05-4.08,2.24,0,4.07,1.81,4.08,4.05l.07,20.22c0,.65.79.98,1.25.52,3.15-3.16,11.17-11.21,11.23-11.21l-.07-21.47h1.32l-.02-6.21-8.19.03V0ZM64.54,18.2h-3.19l-.02-5.07c0-.88.71-1.6,1.59-1.6s1.6.71,1.6,1.59l.02,5.09h0ZM85.24,18.14h-3.19l-.02-5.08c0-.88.71-1.6,1.59-1.6s1.6.71,1.6,1.59l.02,5.09h0Z"/>
    <path class="cls-1" d="M105.61,18.03l-22.95,22.48c-2.31,2.26-5.18,3.59-8.16,4-.14.02-.66.08-1.17.09-.48,0-.95-.04-1.03-.05-3.09-.36-6.08-1.7-8.47-4.04l-22.95-22.48-9.33,9.52,21.85,21.57c5.5,5.43,12.68,8.11,19.84,8.07,7.16.05,14.34-2.64,19.84-8.07l21.85-21.57-9.33-9.52h.01ZM101.54,32.4l-.23-.23-12.95,12.95c-4.17,4.16-9.63,6.25-15.11,6.25h0c-5.47,0-10.94-2.08-15.1-6.25l-12.96-12.95-.23.23-.84-.84.84-.84.84.84-.23.23,12.95,12.95c4.06,4.06,9.39,6.09,14.72,6.09s10.66-2.03,14.72-6.09l12.95-12.95-.23-.23.84-.84.84.84-.84.84h.02Z"/>
    <polygon class="cls-1" points="78.72 67.87 89.55 61.49 80.13 69.82 92.4 67.09 80.88 72.09 93.38 73.3 80.87 74.49 92.4 79.5 80.13 76.78 89.55 85.11 78.72 78.72 85.1 89.55 76.78 80.13 79.5 92.4 74.49 80.87 73.29 93.39 72.1 80.88 67.09 92.4 69.81 80.13 61.49 89.55 67.87 78.73 57.04 85.1 66.45 76.78 54.19 79.51 65.72 74.5 53.2 73.3 65.72 72.09 54.19 67.09 66.46 69.81 57.04 61.49 67.87 67.87 61.48 57.04 69.81 66.46 67.09 54.19 72.1 65.72 73.29 53.21 74.5 65.72 79.51 54.19 76.77 66.46 85.1 57.04 78.72 67.87"/>
  </g>
</svg>