<?xml version="1.0" encoding="UTF-8"?>
<svg id="Layer_1" data-name="Layer 1" xmlns="http://www.w3.org/2000/svg" viewBox="0 0 146.48 146.48">
  <defs>
    <style>
      .cls-1 {
        fill: #fff;
      }
    </style>
  </defs>
  <path class="cls-1" d="M146.45,82.94l-6.12.02-.02-5.54,6.12-.02v-4.16s-.03-4.16-.03-4.16l-6.12.02-.02-5.54,6.12-.02-.03-8.19-6.21.02v1.32s-21.47.07-21.47.07c0,.06-7.99,8.12-11.13,11.29-.46.46-.13,1.25.52,1.25l20.22-.07c2.24,0,4.07,1.81,4.08,4.05,0,2.25-1.81,4.07-4.05,4.08l-20.22.07c-.65,0-.98.79-.52,1.25,3.16,3.14,11.21,11.17,11.21,11.23l21.47-.07v1.32s6.21-.02,6.21-.02l-.03-8.19ZM128.25,64.53v-3.19s5.08-.02,5.08-.02c.88,0,1.6.71,1.6,1.59,0,.88-.71,1.6-1.59,1.6l-5.09.02ZM128.32,85.24v-3.19s5.08-.02,5.08-.02c.88,0,1.6.71,1.6,1.59,0,.88-.71,1.6-1.59,1.6l-5.09.02Z"/>
  <path class="cls-1" d="M128.43,105.6l-22.48-22.95c-2.26-2.31-3.59-5.19-4-8.16-.02-.14-.08-.66-.09-1.17,0-.48.04-.95.05-1.03.36-3.09,1.7-6.08,4.04-8.47l22.48-22.95-9.52-9.33-21.57,21.85c-5.43,5.5-8.11,12.68-8.07,19.84-.05,7.16,2.64,14.34,8.07,19.84l21.57,21.85,9.52-9.33ZM114.06,101.53l.23-.23-12.95-12.95c-4.16-4.17-6.25-9.64-6.25-15.11,0,0,0,0,0,0s0,0,0,0c0-5.47,2.08-10.94,6.25-15.11l12.95-12.95-.23-.23.84-.84.84.84-.84.84-.23-.23-12.95,12.95c-4.06,4.06-6.09,9.39-6.09,14.72,0,5.33,2.03,10.66,6.09,14.72l12.95,12.95.23-.23.84.84-.84.84-.84-.84Z"/>
  <path class="cls-1" d="M82.94.03l.02,6.12-5.54.02-.02-6.12h-4.16s-4.16.03-4.16.03l.02,6.12-5.54.02-.02-6.12-8.19.03.02,6.21h1.32s.07,21.47.07,21.47c.06,0,8.12,7.99,11.29,11.13.46.46,1.25.13,1.25-.52l-.07-20.22c0-2.24,1.81-4.07,4.05-4.08,2.24,0,4.07,1.81,4.08,4.05l.07,20.22c0,.65.79.98,1.25.52,3.15-3.16,11.17-11.21,11.23-11.21l-.07-21.47h1.32s-.02-6.21-.02-6.21l-8.19.03ZM64.53,18.22h-3.19s-.02-5.08-.02-5.08c0-.88.71-1.6,1.59-1.6.88,0,1.6.71,1.6,1.59l.02,5.09ZM85.24,18.15h-3.19s-.02-5.08-.02-5.08c0-.88.71-1.6,1.59-1.6.88,0,1.6.71,1.6,1.59l.02,5.09Z"/>
  <path class="cls-1" d="M105.6,18.05l-22.95,22.48c-2.31,2.26-5.18,3.59-8.16,4-.14.02-.66.08-1.17.09-.48,0-.95-.04-1.03-.05-3.09-.36-6.08-1.7-8.47-4.04l-22.95-22.48-9.33,9.52,21.85,21.57c5.5,5.43,12.68,8.11,19.84,8.07,7.16.05,14.34-2.64,19.84-8.07l21.85-21.57-9.33-9.52ZM101.53,32.42l-.23-.23-12.95,12.95c-4.16,4.16-9.64,6.25-15.11,6.25,0,0,0,0,0,0,0,0,0,0,0,0-5.47,0-10.94-2.08-15.11-6.25l-12.95-12.95-.23.23-.84-.84.84-.84.84.84-.23.23,12.95,12.95c4.06,4.06,9.39,6.09,14.72,6.09,5.33,0,10.66-2.03,14.72-6.09l12.95-12.95-.23-.23.84-.84.84.84-.84.84Z"/>
  <path class="cls-1" d="M.03,63.54l6.12-.02.02,5.54-6.12.02v4.16s.03,4.16.03,4.16l6.12-.02.02,5.54-6.12.02.03,8.19,6.21-.02v-1.32s21.47-.07,21.47-.07c0-.06,7.99-8.12,11.13-11.29.46-.46.13-1.25-.53-1.25l-20.22.07c-2.24,0-4.07-1.81-4.08-4.05,0-2.24,1.81-4.07,4.05-4.08l20.22-.07c.65,0,.98-.79.52-1.25-3.16-3.15-11.21-11.17-11.21-11.23l-21.47.07v-1.32s-6.21.02-6.21.02l.03,8.19ZM18.22,81.95v3.19s-5.08.02-5.08.02c-.88,0-1.6-.71-1.6-1.59,0-.88.71-1.6,1.59-1.6l5.09-.02ZM18.15,61.24v3.19s-5.08.02-5.08.02c-.88,0-1.6-.71-1.6-1.59,0-.88.71-1.6,1.59-1.6l5.09-.02Z"/>
  <path class="cls-1" d="M18.05,40.88l22.48,22.95c2.26,2.31,3.59,5.18,4,8.16.02.14.08.66.09,1.17,0,.48-.04.95-.05,1.03-.36,3.09-1.7,6.08-4.04,8.47l-22.48,22.95,9.52,9.33,21.57-21.85c5.43-5.5,8.11-12.68,8.07-19.84.05-7.16-2.64-14.34-8.07-19.84l-21.57-21.85-9.52,9.33ZM32.42,44.95l-.23.23,12.95,12.95c4.16,4.17,6.25,9.64,6.25,15.11,0,0,0,0,0,0s0,0,0,0c0,5.47-2.08,10.94-6.25,15.11l-12.95,12.96.23.23-.84.84-.84-.84.84-.84.23.23,12.95-12.95c4.06-4.06,6.09-9.39,6.09-14.72,0-5.33-2.03-10.66-6.09-14.72l-12.95-12.95-.23.23-.84-.84.84-.84.84.84Z"/>
  <path class="cls-1" d="M63.54,146.45l-.02-6.12,5.54-.02.02,6.12h4.16s4.16-.03,4.16-.03l-.02-6.12,5.54-.02.02,6.12,8.19-.03-.02-6.21h-1.32s-.07-21.47-.07-21.47c-.06,0-8.12-7.99-11.29-11.13-.46-.46-1.25-.13-1.25.52l.07,20.22c0,2.24-1.81,4.07-4.05,4.08-2.24,0-4.07-1.81-4.08-4.05l-.07-20.22c0-.65-.79-.98-1.25-.52-3.15,3.16-11.17,11.21-11.23,11.21l.07,21.47h-1.32s.02,6.21.02,6.21l8.19-.03ZM81.95,128.26h3.19s.02,5.07.02,5.07c0,.88-.71,1.6-1.59,1.6-.88,0-1.6-.71-1.6-1.59l-.02-5.09ZM61.24,128.32h3.19s.02,5.08.02,5.08c0,.88-.71,1.6-1.59,1.6-.88,0-1.6-.71-1.6-1.59l-.02-5.09Z"/>
  <path class="cls-1" d="M40.88,128.43l22.95-22.48c2.31-2.26,5.18-3.59,8.16-4,.14-.02.66-.08,1.17-.09.48,0,.95.04,1.03.05,3.09.36,6.08,1.7,8.47,4.04l22.95,22.48,9.33-9.52-21.85-21.57c-5.5-5.43-12.68-8.11-19.84-8.07-7.16-.05-14.34,2.64-19.84,8.07l-21.85,21.57,9.33,9.52ZM44.95,114.06l.23.23,12.95-12.95c4.17-4.16,9.63-6.25,15.11-6.25,0,0,0,0,0,0,0,0,0,0,0,0,5.47,0,10.94,2.08,15.1,6.25l12.96,12.95.23-.23.84.84-.84.84-.84-.84.23-.23-12.95-12.95c-4.06-4.06-9.39-6.09-14.72-6.09-5.33,0-10.66,2.03-14.72,6.09l-12.95,12.95.23.23-.84.84-.84-.84.84-.84Z"/>
  <polygon class="cls-1" points="73.3 65.66 76.44 53.49 75.67 66.04 82.42 55.43 77.81 67.12 87.51 59.13 79.51 68.82 91.2 64.21 80.6 70.96 93.14 70.19 80.97 73.33 93.14 76.48 80.6 75.7 91.2 82.45 79.51 77.84 87.51 87.54 77.81 79.54 82.42 91.23 75.67 80.63 76.44 93.17 73.3 81.01 70.16 93.17 70.93 80.63 64.18 91.23 68.79 79.54 59.1 87.54 67.09 77.84 55.4 82.45 66 75.7 53.46 76.48 65.63 73.33 53.46 70.19 66 70.96 55.4 64.21 67.09 68.82 59.1 59.13 68.79 67.12 64.18 55.43 70.93 66.04 70.16 53.49 73.3 65.66"/>
</svg>